<?xml version="1.0" encoding="UTF-8"?>
<svg xmlns="http://www.w3.org/2000/svg" viewBox="192 220 224 224">
  <g fill="#FAFAFA">
    <path d="M303.13,440.1c59.71,0,108.28-48.57,108.28-108.28s-48.57-108.28-108.28-108.28-108.28,48.57-108.28,108.28,48.57,108.28,108.28,108.28ZM303.13,241.65c49.72,0,90.16,40.45,90.16,90.16s-40.45,90.16-90.16,90.16-90.16-40.45-90.16-90.16,40.45-90.16,90.16-90.16Z"/>
    <polygon points="302.74 355.01 302.94 355.21 338.31 319.84 326.9 308.43 302.74 332.59 278.58 308.43 267.16 319.84 302.53 355.21 302.74 355.01"/>
    <polygon points="302.74 395.36 303.49 396.11 358.53 341.08 347.12 329.66 302.74 374.04 258.36 329.66 246.95 341.08 301.99 396.11 302.74 395.36"/>
    <rect x="287.55" y="279.03" width="30.28" height="30.28" transform="translate(-119.35 300.2) rotate(-45)"/>
  </g>
</svg>
