<?xml version="1.0" encoding="UTF-8"?>
<svg xmlns="http://www.w3.org/2000/svg" viewBox="135 220 345 390">
  <g fill="#FAFAFA">
    <path d="M189.49,508.61c-1.64-1.63-3.58-2.99-5.81-4.07-3.57-1.73-7.65-2.59-12.26-2.59-5.98,0-11.39,1.46-16.23,4.37-4.83,2.92-8.67,6.85-11.51,11.8-2.84,4.95-4.26,10.49-4.26,16.63s1.4,11.59,4.2,16.57c2.8,4.99,6.62,8.94,11.45,11.85,4.83,2.92,10.32,4.37,16.46,4.37,4.3,0,13.3.23,23.27-7.54,8-6.45,11.94-17.44,11.94-21.69v-59.26h-17.26v29.55ZM187.48,543.73c-1.34,2.61-3.2,4.64-5.58,6.1-2.38,1.46-5.14,2.19-8.29,2.19s-5.97-.73-8.46-2.19c-2.49-1.46-4.43-3.49-5.81-6.1-1.38-2.61-2.07-5.6-2.07-8.98s.69-6.35,2.07-8.92c1.38-2.57,3.32-4.6,5.81-6.1,2.49-1.5,5.31-2.24,8.46-2.24s5.91.73,8.29,2.19c2.38,1.46,4.24,3.49,5.58,6.1,1.34,2.61,2.01,5.6,2.01,8.97s-.67,6.37-2.01,8.98Z"/>
    <path d="M267.51,506.21c-5.06-2.84-10.7-4.26-16.92-4.26s-11.87,1.42-16.97,4.26c-5.1,2.84-9.17,6.71-12.2,11.62-3.03,4.91-4.55,10.55-4.55,16.91s1.51,11.91,4.55,16.86c3.03,4.95,7.09,8.84,12.2,11.68,5.1,2.84,10.76,4.26,16.97,4.26s11.85-1.42,16.92-4.26c5.06-2.84,9.11-6.73,12.14-11.68,3.03-4.95,4.55-10.57,4.55-16.86s-1.52-12.01-4.55-16.91c-3.03-4.91-7.08-8.78-12.14-11.62ZM264.35,543.73c-1.34,2.61-3.18,4.64-5.52,6.1-2.34,1.46-5.08,2.19-8.23,2.19s-5.91-.73-8.29-2.19c-2.38-1.46-4.24-3.49-5.58-6.1-1.34-2.61-2.01-5.6-2.01-8.98s.67-6.35,2.01-8.92c1.34-2.57,3.2-4.6,5.58-6.1,2.38-1.5,5.14-2.24,8.29-2.24s5.89.75,8.23,2.24c2.34,1.5,4.18,3.53,5.52,6.1,1.34,2.57,2.01,5.54,2.01,8.92s-.67,6.37-2.01,8.98Z"/>
    <path d="M340.18,558.23c2.03-2.91,3.05-6.33,3.05-10.24,0-4.53-1.38-8.34-4.14-11.45-2.76-3.11-6.75-5.42-11.97-6.96l-10.01-2.99c-1.53-.46-2.82-.96-3.85-1.5-1.04-.54-1.78-1.15-2.24-1.84-.46-.69-.69-1.46-.69-2.3,0-1.61.63-2.88,1.9-3.8,1.27-.92,3.01-1.38,5.24-1.38,3.07,0,5.81.79,8.23,2.36,2.42,1.57,4.09,3.66,5.01,6.27l12.77-5.98c-1.92-5.21-5.2-9.26-9.84-12.14-4.64-2.88-10.03-4.32-16.17-4.32-4.68,0-8.82.83-12.43,2.47-3.61,1.65-6.41,3.93-8.4,6.85-2,2.92-2.99,6.33-2.99,10.24,0,4.45,1.38,8.31,4.14,11.57,2.76,3.26,6.71,5.62,11.85,7.08l10.7,2.99c1.38.39,2.53.85,3.45,1.38.92.54,1.61,1.13,2.07,1.78.46.65.69,1.44.69,2.36,0,1.77-.65,3.15-1.96,4.14-1.31,1-3.18,1.5-5.64,1.5-3.38,0-6.44-.96-9.21-2.88-2.76-1.92-4.95-4.56-6.56-7.94l-12.66,5.98c1.84,5.52,5.31,9.92,10.41,13.18,5.1,3.26,11.1,4.89,18.01,4.89,4.91,0,9.17-.83,12.77-2.48,3.61-1.65,6.42-3.93,8.46-6.85Z"/>
    <path d="M405.65,510.93c-2.65-2.84-5.89-5.04-9.72-6.62-3.84-1.57-8.25-2.36-13.23-2.36-5.98,0-11.35,1.42-16.11,4.26-4.76,2.84-8.54,6.71-11.33,11.62-2.8,4.91-4.2,10.51-4.2,16.8s1.34,11.58,4.03,16.57c2.68,4.99,6.48,8.96,11.39,11.91,4.91,2.95,10.7,4.43,17.38,4.43,4.3,0,8.25-.63,11.85-1.9,3.61-1.27,6.73-3.05,9.38-5.35s4.58-4.98,5.81-8.05l-13.81-6.56c-1.23,2.15-2.93,3.84-5.12,5.06-2.19,1.23-4.81,1.84-7.88,1.84-3.38,0-6.25-.75-8.63-2.24-2.38-1.5-4.14-3.59-5.29-6.27-.59-1.38-.99-2.88-1.19-4.49h44c.31-.84.52-1.86.63-3.05.11-1.19.17-2.4.17-3.62,0-4.37-.69-8.42-2.07-12.14-1.38-3.72-3.39-7-6.04-9.84ZM374.99,517.95c2.15-1.46,4.72-2.19,7.71-2.19s5.66.75,7.77,2.24c2.11,1.5,3.59,3.53,4.43,6.1.29.89.48,1.84.58,2.82h-26.07c.2-.89.44-1.74.74-2.53,1.07-2.84,2.68-4.99,4.83-6.44Z"/>
    <rect x="423.89" y="479.06" width="17.26" height="87.11"/>
    <path d="M343.5,589.51c-.76-.39-1.64-.58-2.63-.58-.79,0-1.53.14-2.24.41-.7.27-1.32.64-1.85,1.1-.53.46-.92.97-1.18,1.52l1.39.74c.36-.68.88-1.24,1.57-1.67.68-.43,1.46-.64,2.31-.64,1.05,0,1.89.28,2.54.85.65.56.98,1.3.98,2.21v.76l-5.11.86c-1.05.17-1.89.47-2.54.89-.65.42-1.12.92-1.41,1.5-.29.58-.44,1.21-.44,1.88,0,.75.2,1.42.59,2.01.39.58.93,1.04,1.59,1.36s1.43.49,2.29.49,1.61-.14,2.3-.42c.69-.28,1.3-.65,1.81-1.11.41-.36.7-.76.92-1.18v2.4h1.54v-9.43c0-.89-.21-1.67-.64-2.35-.43-.68-1.02-1.21-1.79-1.59ZM342.04,601.11c-.74.45-1.6.68-2.6.68-.86,0-1.56-.23-2.12-.69-.56-.46-.83-1.06-.83-1.8,0-.69.24-1.29.72-1.8.48-.51,1.3-.87,2.47-1.05l4.7-.78v1.19c0,.89-.2,1.71-.62,2.45-.41.75-.98,1.35-1.72,1.8Z"/>
    <path d="M368.31,597.44c0,.82-.15,1.56-.46,2.2-.31.64-.75,1.14-1.32,1.5-.57.36-1.25.54-2.04.54-.72,0-1.37-.15-1.94-.46-.57-.31-1.03-.75-1.36-1.32-.33-.57-.5-1.26-.5-2.07v-8.58h-1.54v8.71c0,1.08.23,2.01.69,2.79.46.78,1.08,1.38,1.86,1.81.78.43,1.63.64,2.56.64,1.08,0,2.01-.27,2.8-.81.53-.36.95-.82,1.26-1.34v1.84h1.54v-13.65h-1.54v8.2Z"/>
    <path d="M394.81,591.77c-.48-.79-1.13-1.44-1.95-1.94-.98-.59-2.09-.89-3.34-.89s-2.41.31-3.43.93c-1.02.62-1.82,1.46-2.4,2.54-.58,1.08-.87,2.3-.87,3.65s.29,2.57.87,3.65c.58,1.08,1.38,1.93,2.4,2.56,1.02.63,2.16.94,3.43.94s2.37-.3,3.35-.91c.83-.51,1.47-1.2,1.94-2.03v2.63h1.54v-19.46h-1.54v8.33ZM394.09,598.92c-.46.85-1.08,1.52-1.86,2.01s-1.67.73-2.66.73-1.85-.24-2.62-.73-1.38-1.16-1.82-2.01c-.45-.85-.67-1.8-.67-2.87s.22-2.01.67-2.85c.44-.84,1.05-1.5,1.82-1.99.77-.49,1.64-.73,2.62-.73s1.88.24,2.66.73c.78.49,1.4,1.15,1.86,1.99.46.84.69,1.79.69,2.85s-.23,2.02-.69,2.87Z"/>
    <rect x="409.87" y="583.75" width="1.54" height="2.83"/>
    <rect x="409.87" y="589.24" width="1.54" height="13.65"/>
    <path d="M434.77,589.86c-1.05-.62-2.22-.93-3.52-.93s-2.5.31-3.53.93c-1.04.62-1.86,1.46-2.47,2.54-.61,1.08-.91,2.3-.91,3.65s.3,2.58.91,3.66c.61,1.09,1.43,1.94,2.48,2.56,1.04.62,2.22.92,3.52.92s2.45-.31,3.48-.92c1.04-.62,1.86-1.47,2.48-2.55.62-1.08.92-2.3.92-3.68s-.3-2.59-.9-3.66c-.6-1.07-1.42-1.92-2.47-2.53ZM435.8,598.93c-.46.86-1.09,1.53-1.89,2.02-.8.49-1.68.73-2.66.73s-1.88-.24-2.67-.73c-.79-.49-1.42-1.16-1.89-2.02-.47-.86-.71-1.82-.71-2.88s.23-2.02.69-2.87c.46-.85,1.09-1.52,1.89-2,.8-.49,1.69-.73,2.69-.73s1.88.25,2.67.75c.79.5,1.41,1.17,1.88,2,.46.84.69,1.79.69,2.85s-.23,2.02-.69,2.88Z"/>
    <path d="M466.93,482.41c-4.63.17-8.17,4.09-7.96,8.64.2,4.54,4.04,8.08,8.59,7.91,4.56-.18,8.12-4.01,7.95-8.58-.16-4.53-3.97-8.14-8.58-7.97ZM467.61,497.97c-3.99.2-7.42-2.87-7.65-6.86-.23-3.99,2.84-7.49,6.91-7.7,4.06-.21,7.45,2.94,7.65,6.92.2,4.01-2.9,7.44-6.91,7.64Z"/>
    <path d="M470.65,488.55c-.24-1.26-1.33-2.24-2.66-2.29h-3.66s0,8.84,0,8.84h1.45s0-3.22,0-3.22h1.71s1.88,3.24,1.88,3.24l1.56-.03-1.99-3.4c1.24-.55,1.95-1.8,1.69-3.13ZM468.05,490.55c-.75.06-1.47.02-2.27.03v-2.94c.76,0,1.5-.03,2.26.02.69.04,1.16.69,1.21,1.39.02.74-.47,1.46-1.2,1.51Z"/>
    <path d="M303.13,440.1c59.71,0,108.28-48.57,108.28-108.28s-48.57-108.28-108.28-108.28-108.28,48.57-108.28,108.28,48.57,108.28,108.28,108.28ZM303.13,241.65c49.72,0,90.16,40.45,90.16,90.16s-40.45,90.16-90.16,90.16-90.16-40.45-90.16-90.16,40.45-90.16,90.16-90.16Z"/>
    <polygon points="302.74 355.01 302.94 355.21 338.31 319.84 326.9 308.43 302.74 332.59 278.58 308.43 267.16 319.84 302.53 355.21 302.74 355.01"/>
    <polygon points="302.74 395.36 303.49 396.11 358.53 341.08 347.12 329.66 302.74 374.04 258.36 329.66 246.95 341.08 301.99 396.11 302.74 395.36"/>
    <rect x="287.55" y="279.03" width="30.28" height="30.28" transform="translate(-119.35 300.2) rotate(-45)"/>
  </g>
</svg>
